<svg width="678" height="88" viewBox="0 0 678 88" fill="none" xmlns="http://www.w3.org/2000/svg">
<path fill-rule="evenodd" clip-rule="evenodd" d="M487.738 43.9841L487.721 34.0509H482.585L482.602 43.9841C482.609 48.9491 484.251 50.3695 490.642 50.3695H500.802C506.103 50.3695 507.627 48.5679 508.271 41.0358C506.907 40.7099 504.72 39.9474 503.623 39.1266C503.305 44.9125 502.924 45.7856 500.413 45.7856H491.124C488.287 45.7856 487.74 45.512 487.738 43.9841ZM479.91 34.979L475.371 33.2881C473.557 37.7889 471.976 41.226 469.549 46.0589L475.917 45.5855C476.466 44.1586 476.899 43.0605 477.278 42.0972C478.174 39.8228 478.774 38.3006 479.91 34.979ZM516.062 38.2311C515.282 36.9207 514.455 35.6385 512.628 32.795L508.098 34.7041C511.084 39.6432 511.822 41.1684 513.734 45.1198C513.807 45.2709 513.882 45.4256 513.959 45.5842L519.011 43.4722C517.513 40.7677 516.809 39.4865 516.062 38.2311ZM500.287 34.5207C497.851 33.0378 497.067 32.5607 492.142 29.6545L489.339 33.187C491.018 34.2884 492.392 35.1236 493.728 35.9353C495.464 36.9904 497.135 38.0057 499.323 39.514L502.801 36.0492C501.756 35.4152 500.959 34.9297 500.287 34.5207ZM513.165 28.1155L513.125 3.22258H474.778L474.818 28.1155H513.165ZM496.437 17.6981H508.801L508.814 23.8868H496.443L496.437 17.6981ZM479.302 17.6981H491.67L491.679 23.8868H479.315L479.302 17.6981ZM496.437 7.64151H508.808L508.814 13.8302H496.446L496.437 7.64151ZM479.302 7.64151H491.67L491.679 13.8302H479.314L479.302 7.64151ZM456.6 25.3843L456.565 3.4427H419.037L419.072 25.3843H435.025L435.031 29.424H413.782L413.788 34.0662H431.104C426.361 38.7577 419.104 42.9603 412.387 45.0877C413.456 45.7159 413.974 46.0041 414.841 46.4866C415.477 46.84 416.299 47.2978 417.664 48.0698C424.539 45.5028 429.917 42.0318 435.044 36.5195L435.067 50.929H440.421L440.395 36.2459C445.647 41.5953 449.946 45.5335 456.617 48.1559C458.989 47.0608 459.626 46.7326 460.455 46.3051C461.01 46.0186 461.652 45.6875 462.962 45.0508C456.348 42.9757 449.252 38.5394 444.326 34.0662H461.587L461.581 29.424H440.387L440.379 25.3843H456.6ZM440.362 16.3242H451.125L451.131 21.071H440.371L440.362 16.3242ZM424.301 16.3242H435.011L435.017 21.071H424.31L424.301 16.3242ZM440.346 7.6976H451.109L451.118 12.3399H440.356L440.346 7.6976ZM424.288 7.6976H434.996L435.002 12.3399H424.297L424.288 7.6976ZM570.287 27.0063L566.663 24.5806H545.836L545.845 29.0138H564.531C563.126 32.4048 561.096 35.3255 558.542 37.7757C555.98 35.2701 553.939 32.3003 552.527 29.0661L548.196 30.4219C549.925 34.3355 552.228 37.7757 554.999 40.7486C551.557 43.0943 547.646 44.8159 543.421 45.8612C543.92 46.6856 544.325 47.3378 544.695 47.9318C545.162 48.6823 545.571 49.3399 546.036 50.1346C550.677 48.7788 554.904 46.7958 558.603 44.0351C562.004 46.7466 566.024 48.7788 570.567 50.1346C571.208 49.2435 571.642 48.6744 572.212 47.9252C572.604 47.4103 573.061 46.8104 573.694 45.9627C569.358 44.8713 565.546 43.1466 562.254 40.8531C566.057 36.9948 568.575 33.3671 570.287 27.0063ZM543.37 47.3185L543.346 31.9867H527.632L527.663 49.5105H531.838L531.835 47.3185H543.37ZM531.816 35.9004H539.124L539.135 43.4079H531.827L531.816 35.9004ZM543.392 28.7525L543.387 24.9465H527.726L527.731 28.7525H543.392ZM565.605 16.8368L565.585 3.87803H548.829L548.839 10.082C548.845 13.6821 548.124 17.8017 543.377 20.9837L543.372 18.0108H527.714L527.721 21.7645H543.379L543.377 21.0851C543.901 21.4982 544.423 21.9828 544.965 22.4859C545.568 23.0463 546.196 23.6296 546.88 24.1625C552.355 20.5133 553.442 14.8288 553.431 10.1374L553.429 8.2067H560.946L560.96 16.889C560.966 21.1654 562.066 22.3675 565.666 22.3675H569.007C572.032 22.3675 573.231 20.7473 573.535 14.5433C572.597 14.6315 572.056 14.6901 571.444 14.7562C570.935 14.8114 570.377 14.8718 569.5 14.959C569.375 17.7858 569.121 18.2448 568.476 18.2448H566.442C565.71 18.2448 565.609 18.0388 565.605 16.8368ZM545.194 14.7766L545.188 10.9183H525.25L525.253 14.7766H545.194ZM543.201 7.84087L543.192 4.03176H527.901L529.402 7.84087H543.201ZM600.829 47.3197L600.804 31.988H584.466L584.497 49.5117H588.777L588.771 47.3197H600.829ZM618.457 20.367L618.43 3H613.523L613.549 20.367H602.768L605.467 25.166H613.559L613.601 49.2627H618.506L618.464 25.166H629.424L629.416 20.367H618.457ZM588.751 35.8985H596.477L596.488 43.4091H588.765L588.751 35.8985ZM600.955 28.7538L600.95 24.9477H584.559L584.565 28.7538H600.955ZM600.942 21.7658L600.938 18.012H584.548L584.552 21.7658H600.942ZM602.914 14.7778L602.91 10.9164H582.083L582.09 14.7778H602.914ZM600.97 7.83902L600.964 4.03299H584.839L587.222 7.83902H600.97ZM437.72 81.9502C439.154 81.9502 440.491 81.6104 441.729 80.9308C442.968 80.2512 443.925 79.2505 444.601 77.9288C445.277 76.6071 445.614 75.109 445.614 73.4343C445.614 71.7822 445.293 70.3047 444.652 69.0017C444.01 67.6988 443.077 66.6831 441.853 65.9547C440.629 65.2263 439.256 64.862 437.732 64.862C435.404 64.862 433.505 65.6374 432.033 67.1881C430.562 68.7389 429.826 70.8848 429.826 73.6258C429.826 75.0752 430.142 76.4494 430.772 77.7486C431.403 79.0478 432.33 80.0728 433.554 80.8238C434.777 81.5748 436.166 81.9502 437.72 81.9502ZM420.435 81.9502C421.636 81.9502 422.807 81.7343 423.948 81.3025C425.089 80.8707 426.196 80.2268 427.27 79.3707V73.2428L420.277 73.2541V75.1916H425.13V78.2668C424.665 78.6798 423.982 79.0684 423.081 79.4326C422.18 79.7969 421.257 79.979 420.311 79.979C419.222 79.979 418.194 79.7387 417.225 79.258C416.257 78.7774 415.519 78.0415 415.012 77.0502C414.506 76.0589 414.252 74.8273 414.252 73.3555C414.252 72.1614 414.462 71.0537 414.883 70.0324C415.131 69.4392 415.478 68.8947 415.924 68.3991C416.371 67.9034 416.959 67.5036 417.687 67.1994C418.415 66.8953 419.278 66.7432 420.277 66.7432C421.11 66.7432 421.868 66.8878 422.552 67.1769C423.235 67.466 423.76 67.8509 424.128 68.3315C424.496 68.8121 424.804 69.473 425.052 70.314L427.022 69.7733C426.737 68.6619 426.32 67.7608 425.772 67.0699C425.224 66.379 424.468 65.8402 423.503 65.4534C422.539 65.0667 421.459 64.8733 420.266 64.8733C418.622 64.8733 417.169 65.2112 415.908 65.8871C414.646 66.563 413.68 67.5974 413.008 68.9905C412.336 70.3835 412 71.8836 412 73.4906C412 75.1127 412.338 76.5808 413.013 77.895C413.689 79.2092 414.69 80.2136 416.015 80.9083C417.34 81.6029 418.813 81.9502 420.435 81.9502ZM433.683 78.3625C434.753 79.5077 436.095 80.0803 437.709 80.0803C439.353 80.0803 440.706 79.5021 441.769 78.3456C442.831 77.1891 443.362 75.5483 443.362 73.423C443.362 72.0788 443.135 70.9054 442.681 69.9029C442.227 68.9004 441.562 68.1231 440.688 67.5711C439.813 67.0192 438.831 66.7432 437.743 66.7432C436.196 66.7432 434.866 67.2745 433.751 68.3371C432.636 69.3997 432.079 71.1739 432.079 73.6596C432.079 75.6497 432.613 77.2173 433.683 78.3625ZM455.659 81.9502C457.093 81.9502 458.43 81.6104 459.668 80.9308C460.907 80.2512 461.864 79.2505 462.54 77.9288C463.215 76.6071 463.553 75.109 463.553 73.4343C463.553 71.7822 463.232 70.3047 462.59 69.0017C461.949 67.6988 461.016 66.6831 459.792 65.9547C458.568 65.2263 457.195 64.862 455.671 64.862C453.343 64.862 451.444 65.6374 449.972 67.1881C448.501 68.7389 447.765 70.8848 447.765 73.6258C447.765 75.0752 448.081 76.4494 448.711 77.7486C449.342 79.0478 450.269 80.0728 451.493 80.8238C452.716 81.5748 454.105 81.9502 455.659 81.9502ZM451.622 78.3625C452.692 79.5077 454.034 80.0803 455.648 80.0803C457.292 80.0803 458.645 79.5021 459.708 78.3456C460.77 77.1891 461.301 75.5483 461.301 73.423C461.301 72.0788 461.074 70.9054 460.62 69.9029C460.166 68.9004 459.501 68.1231 458.627 67.5711C457.752 67.0192 456.77 66.7432 455.682 66.7432C454.135 66.7432 452.805 67.2745 451.69 68.3371C450.575 69.3997 450.017 71.1739 450.017 73.6596C450.017 75.6497 450.552 77.2173 451.622 78.3625ZM468.441 81.6686V68.692L477.112 81.6686H479.353V65.1549H477.258V78.1203L468.587 65.1549H466.346V81.6686H468.441ZM492.5 81.3025C491.558 81.7343 490.497 81.9502 489.319 81.9502C487.825 81.9502 486.573 81.7325 485.563 81.2969C484.553 80.8614 483.761 80.2061 483.187 79.3313C482.613 78.4564 482.311 77.467 482.281 76.3631L484.341 76.1828C484.439 77.0089 484.666 77.6866 485.023 78.2161C485.379 78.7455 485.933 79.1736 486.684 79.5002C487.434 79.8269 488.279 79.9902 489.217 79.9902C490.051 79.9902 490.786 79.8663 491.425 79.6185C492.063 79.3707 492.538 79.0309 492.849 78.5991C493.161 78.1673 493.316 77.696 493.316 77.1854C493.316 76.6672 493.166 76.2148 492.866 75.828C492.566 75.4413 492.07 75.1165 491.379 74.8536C490.937 74.6809 489.957 74.4124 488.44 74.0482C486.924 73.684 485.862 73.3404 485.253 73.0175C484.465 72.6045 483.878 72.0919 483.491 71.4799C483.104 70.8679 482.911 70.1826 482.911 69.4241C482.911 68.5906 483.148 67.8114 483.621 67.0868C484.094 66.3621 484.784 65.812 485.693 65.4365C486.601 65.061 487.611 64.8733 488.722 64.8733C489.946 64.8733 491.025 65.0704 491.959 65.4647C492.894 65.8589 493.613 66.4391 494.116 67.205C494.619 67.971 494.889 68.8384 494.927 69.8071L492.832 69.9648C492.72 68.921 492.339 68.1325 491.689 67.5993C491.04 67.0661 490.081 66.7995 488.812 66.7995C487.491 66.7995 486.528 67.0417 485.923 67.5261C485.319 68.0105 485.017 68.5943 485.017 69.2777C485.017 69.871 485.231 70.3591 485.659 70.7421C486.079 71.1251 487.177 71.5175 488.953 71.9192C490.728 72.321 491.946 72.6721 492.607 72.9725C493.568 73.4155 494.277 73.9769 494.735 74.6565C495.193 75.3361 495.422 76.119 495.422 77.0051C495.422 77.8838 495.171 78.7117 494.668 79.489C494.165 80.2662 493.442 80.8707 492.5 81.3025ZM510.771 81.6686C511.77 81.6686 512.654 81.5748 513.423 81.387C514.193 81.1993 514.85 80.9233 515.394 80.5591C515.938 80.1949 516.439 79.6955 516.897 79.0609C517.355 78.4263 517.73 77.6247 518.023 76.6559C518.316 75.6872 518.462 74.5758 518.462 73.3217C518.462 71.8498 518.247 70.5412 517.815 69.396C517.383 68.2508 516.732 67.3102 515.861 66.5742C515.193 66.0035 514.386 65.6092 513.44 65.3915C512.764 65.2338 511.785 65.1549 510.501 65.1549H504.814V81.6686H510.771ZM506.999 79.7199H510.523C511.612 79.7199 512.466 79.6185 513.085 79.4157C513.705 79.213 514.198 78.9276 514.566 78.5596C515.084 78.0415 515.488 77.345 515.777 76.4701C516.066 75.5952 516.21 74.5345 516.21 73.2879C516.21 71.5606 515.927 70.2333 515.36 69.3059C514.793 68.3784 514.104 67.757 513.294 67.4416C512.708 67.2163 511.766 67.1037 510.467 67.1037H506.999V79.7199ZM533.834 81.6686V79.7199H523.699V74.0989H532.832V72.1614H523.699V67.1037H533.451V65.1549H521.514V81.6686H533.834ZM546.328 81.3025C545.386 81.7343 544.325 81.9502 543.147 81.9502C541.653 81.9502 540.401 81.7325 539.391 81.2969C538.381 80.8614 537.589 80.2061 537.015 79.3313C536.441 78.4564 536.139 77.467 536.109 76.3631L538.169 76.1828C538.267 77.0089 538.494 77.6866 538.851 78.2161C539.207 78.7455 539.761 79.1736 540.512 79.5002C541.262 79.8269 542.107 79.9902 543.045 79.9902C543.879 79.9902 544.614 79.8663 545.253 79.6185C545.891 79.3707 546.366 79.0309 546.677 78.5991C546.989 78.1673 547.144 77.696 547.144 77.1854C547.144 76.6672 546.994 76.2148 546.694 75.828C546.394 75.4413 545.898 75.1165 545.208 74.8536C544.765 74.6809 543.785 74.4124 542.268 74.0482C540.752 73.684 539.69 73.3404 539.082 73.0175C538.293 72.6045 537.706 72.0919 537.319 71.4799C536.933 70.8679 536.739 70.1826 536.739 69.4241C536.739 68.5906 536.976 67.8114 537.449 67.0868C537.922 66.3621 538.612 65.812 539.521 65.4365C540.429 65.061 541.439 64.8733 542.55 64.8733C543.774 64.8733 544.853 65.0704 545.788 65.4647C546.722 65.8589 547.441 66.4391 547.944 67.205C548.447 67.971 548.717 68.8384 548.755 69.8071L546.66 69.9648C546.548 68.921 546.167 68.1325 545.517 67.5993C544.868 67.0661 543.909 66.7995 542.64 66.7995C541.319 66.7995 540.356 67.0417 539.752 67.5261C539.147 68.0105 538.845 68.5943 538.845 69.2777C538.845 69.871 539.059 70.3591 539.487 70.7421C539.907 71.1251 541.005 71.5175 542.781 71.9192C544.556 72.321 545.774 72.6721 546.435 72.9725C547.396 73.4155 548.105 73.9769 548.563 74.6565C549.021 75.3361 549.25 76.119 549.25 77.0051C549.25 77.8838 548.999 78.7117 548.496 79.489C547.993 80.2662 547.27 80.8707 546.328 81.3025ZM554.791 81.6686V65.1549H552.606V81.6686H554.791ZM570.038 81.3025C568.897 81.7343 567.726 81.9502 566.525 81.9502C564.903 81.9502 563.43 81.6029 562.105 80.9083C560.78 80.2136 559.779 79.2092 559.104 77.895C558.428 76.5808 558.09 75.1127 558.09 73.4906C558.09 71.8836 558.426 70.3835 559.098 68.9905C559.77 67.5974 560.737 66.563 561.998 65.8871C563.259 65.2112 564.712 64.8733 566.356 64.8733C567.55 64.8733 568.629 65.0667 569.593 65.4534C570.558 65.8402 571.315 66.379 571.863 67.0699C572.411 67.7608 572.827 68.6619 573.113 69.7733L571.142 70.314C570.894 69.473 570.586 68.8121 570.218 68.3315C569.851 67.8509 569.325 67.466 568.642 67.1769C567.959 66.8878 567.2 66.7432 566.367 66.7432C565.369 66.7432 564.505 66.8953 563.777 67.1994C563.049 67.5036 562.461 67.9034 562.015 68.3991C561.568 68.8947 561.221 69.4392 560.973 70.0324C560.553 71.0537 560.342 72.1614 560.342 73.3555C560.342 74.8273 560.596 76.0589 561.103 77.0502C561.609 78.0415 562.347 78.7774 563.315 79.258C564.284 79.7387 565.312 79.979 566.401 79.979C567.347 79.979 568.27 79.7969 569.171 79.4326C570.072 79.0684 570.755 78.6798 571.221 78.2668V75.1916H566.367V73.2541L573.36 73.2428V79.3707C572.287 80.2268 571.179 80.8707 570.038 81.3025ZM578.653 81.6686V68.692L587.324 81.6686H589.565V65.1549H587.47V78.1203L578.799 65.1549H576.558V81.6686H578.653ZM651.256 79.7199V81.6686H640.94V65.1549H643.125V79.7199H651.256ZM656.785 81.8263C657.235 81.8263 657.746 81.7663 658.316 81.6461L658.023 79.8551C657.656 79.9076 657.359 79.9339 657.134 79.9339C656.834 79.9339 656.603 79.8851 656.441 79.7875C656.28 79.6898 656.164 79.5584 656.092 79.3932C656.021 79.228 655.985 78.8563 655.985 78.278V71.2828H658.023V69.7058H655.985V65.5266L653.969 66.7432V69.7058H652.483V71.2828H653.969V78.1654C653.969 79.382 654.052 80.1799 654.217 80.5591C654.382 80.9383 654.668 81.2443 655.073 81.4771C655.478 81.7099 656.049 81.8263 656.785 81.8263ZM667.764 80.1592C667.006 81.3457 665.891 81.939 664.42 81.939C663.466 81.939 662.59 81.6762 661.79 81.1505C660.991 80.6248 660.371 79.8907 659.932 78.9483C659.493 78.0058 659.273 76.9225 659.273 75.6985C659.273 74.5044 659.472 73.4212 659.87 72.4487C660.268 71.4762 660.865 70.7308 661.661 70.2127C662.457 69.6945 663.346 69.4354 664.33 69.4354C665.05 69.4354 665.692 69.5875 666.255 69.8916C666.818 70.1958 667.276 70.5919 667.629 71.08V65.1549H669.645V81.6686H667.764V80.1592ZM664.611 80.2719C663.733 80.2719 662.971 79.8926 662.325 79.1341C661.68 78.3757 661.357 77.2305 661.357 75.6985C661.357 74.1139 661.659 72.9537 662.263 72.2178C662.868 71.4818 663.62 71.1138 664.521 71.1138C665.445 71.1138 666.222 71.4968 666.852 72.2628C667.483 73.0288 667.798 74.2303 667.798 75.8675C667.798 77.3544 667.488 78.4602 666.869 79.1848C666.25 79.9095 665.497 80.2719 664.611 80.2719ZM675.715 79.3594V81.6687H673.406V79.3594H675.715ZM606.15 64.9891C608.187 64.9891 609.768 65.5259 610.893 66.5994C612.018 67.6729 612.642 68.8924 612.766 70.2581H610.641C610.4 69.2211 609.918 68.3995 609.195 67.7934C608.479 67.1873 607.472 66.8842 606.172 66.8842C604.587 66.8842 603.305 67.4429 602.327 68.5602C601.356 69.6702 600.87 71.3754 600.87 73.6757C600.87 75.5598 601.308 77.0898 602.184 78.2655C603.068 79.4339 604.383 80.0181 606.128 80.0181C607.734 80.0181 608.958 79.4011 609.798 78.1669C610.243 77.517 610.575 76.6625 610.794 75.6036H612.919C612.73 77.2979 612.102 78.7183 611.035 79.8648C609.757 81.245 608.034 81.9351 605.865 81.9351C603.995 81.9351 602.425 81.3691 601.155 80.2372C599.482 78.7402 598.646 76.4289 598.646 73.3033C598.646 70.9299 599.274 68.9837 600.53 67.4648C601.889 65.8143 603.762 64.9891 606.15 64.9891ZM619.974 80.2482C621.281 80.2482 622.176 79.7552 622.658 78.7694C623.147 77.7762 623.392 76.6735 623.392 75.4612C623.392 74.3658 623.216 73.4749 622.866 72.7884C622.311 71.7076 621.354 71.1672 619.996 71.1672C618.791 71.1672 617.914 71.6273 617.367 72.5475C616.819 73.4676 616.545 74.5776 616.545 75.8775C616.545 77.1263 616.819 78.1669 617.367 78.9994C617.914 79.8319 618.784 80.2482 619.974 80.2482ZM620.051 69.4474C621.562 69.4474 622.84 69.9513 623.884 70.9591C624.929 71.9669 625.451 73.4493 625.451 75.4065C625.451 77.2979 624.991 78.8607 624.071 80.0948C623.151 81.329 621.723 81.9461 619.788 81.9461C618.174 81.9461 616.892 81.402 615.943 80.3139C614.993 79.2185 614.519 77.7506 614.519 75.9104C614.519 73.9386 615.019 72.3685 616.019 71.2001C617.02 70.0317 618.364 69.4474 620.051 69.4474ZM630.566 79.1309H628.277V81.5189H630.566V79.1309ZM632.532 83.8083C633.036 83.7206 633.39 83.3664 633.595 82.7457C633.704 82.4171 633.759 82.0994 633.759 81.7927C633.759 81.7416 633.755 81.6941 633.748 81.6503C633.748 81.6138 633.741 81.57 633.726 81.5189H632.532V79.1309H634.876V81.3436C634.876 82.2126 634.701 82.9757 634.351 83.633C634 84.2902 633.394 84.6955 632.532 84.8489V83.8083Z" fill="#252525"/>
<path fill-rule="evenodd" clip-rule="evenodd" d="M195.565 3.28476C191.52 4.90825 187.69 7.39973 184.077 10.76C180.464 14.1199 177.491 17.9142 175.158 22.1429C172.525 26.9602 170.677 32.7347 169.613 39.4669L186.555 40.7024C188.148 31.7461 191.334 25.1083 196.112 20.7882C201.074 16.3027 205.699 14.1723 212.568 14.5307C219.437 14.8896 223.28 17.4343 226.679 22.2996C230.078 27.165 231.017 34.3217 229.494 43.7691C229.491 43.7909 229.488 43.812 229.484 43.8334L246.471 45.0727C246.563 44.4027 246.645 43.7248 246.719 43.0406C248.173 29.5238 245.653 18.9719 239.159 11.3829C232.664 3.7943 224.621 0 212.442 0C205.714 0 200.95 1.09549 195.565 3.28476ZM111.551 3.28476C107.505 4.90825 103.676 7.39973 100.063 10.76C96.4501 14.1199 93.4765 17.9142 91.1426 22.1429C89.3342 25.453 87.8959 29.2151 86.8276 33.4297L103.956 34.6789C105.747 28.706 108.462 24.0755 112.098 20.7882C117.059 16.3027 121.685 14.1723 128.554 14.5307C135.422 14.8896 139.266 17.4343 142.665 22.2996C145.301 26.0733 146.457 31.225 146.133 37.7546L163.026 38.9861C163.602 27.3968 160.975 18.1958 155.145 11.3829C148.65 3.7943 140.606 0 128.428 0C121.7 0 116.936 1.09549 111.551 3.28476ZM8.43962 19.6154C6.73765 22.1936 5.1003 25.186 4.34516 27.468L20.9082 28.6227C25.5136 19.718 34.885 14.0259 44.9801 14.283C48.6394 14.3766 52.3574 15.2425 55.3788 17.3017C60.0501 20.4851 61.5873 25.8078 62.3054 31.135L62.3403 31.1994L62.3791 31.2604C62.544 31.4977 62.8094 31.6519 63.1036 31.6742L78.0057 32.7928L78.0746 32.7953L78.1444 32.7936C78.6833 32.7588 79.0925 32.2957 79.0581 31.7582C78.8445 22.9579 76.1755 15.2682 71.198 10.0105C66.3492 4.88979 59.8571 1.96047 53.0005 0.722459C50.3397 0.242107 47.6245 0.0167415 44.9292 0.0167415C43.6046 0.0167415 42.2847 0.0712585 40.9791 0.176429C27.7277 1.2466 15.7364 8.56176 8.43962 19.6154ZM347.092 4.54552C342.471 6.4313 338.792 9.1769 336.054 12.7819C333.318 16.3873 331.725 20.2602 331.279 24.4013C330.583 30.8352 332.489 36.2886 336.997 40.7629C340.202 43.9429 346.086 46.6237 354.648 48.8048C361.304 50.5051 371.947 51.6865 371.947 61.2141C371.853 64.8727 368.792 70.6962 360.272 72.1561C354.862 72.9039 348.178 72.8962 343.804 69.1586C339.203 65.2282 338.74 59.3343 340.549 53.8929C340.546 53.3812 340.139 52.9627 339.624 52.9438L327.004 52.0346H326.985H326.968C326.848 52.0346 326.118 51.9033 325.921 52.5768C325.239 54.8965 324.867 60.878 325.227 63.3982C326.048 69.1362 328.051 74.6459 332.341 78.7269C337.335 83.4781 344.972 85.8541 355.249 85.8541C369.225 85.8541 376.707 82.0503 383.405 74.7717C387.122 70.7323 388.677 65.4402 388.863 60.083C389.057 54.5291 387.196 49.6178 382.974 45.6523C377.023 40.0606 370.94 37.9319 363.062 35.801C357.169 34.3732 345.517 32.1423 346.911 23.696C347.708 18.8599 353.153 16.4041 357.504 15.7082C364.719 14.5548 375.928 17.0596 375.326 26.3781L375.333 26.4429L375.346 26.506C375.425 26.8374 375.713 27.0881 376.065 27.1134L388.665 28.0523L388.682 28.0535C388.852 28.066 389.549 28.1106 389.762 27.4092C390.043 26.4807 390.409 18.9123 386.428 12.7819C381.478 5.15723 369.685 1.71707 363.395 1.71707C355.249 1.71707 351.713 2.66061 347.092 4.54552ZM308.744 3.43415L308.675 3.43672C308.217 3.46935 307.841 3.82178 307.788 4.28152L303.184 49.2384L318.73 50.3725L323.789 4.49616L323.794 4.44379L323.795 4.39141C323.795 3.86299 323.364 3.43415 322.833 3.43415H308.744ZM260.121 3.43415L260.052 3.43672C259.592 3.46935 259.215 3.82478 259.164 4.2871L254.598 45.6956L270.082 46.8254L271.796 29.5105L279.514 47.5127L295.068 48.6473L276.254 4.01409L276.224 3.9497C276.06 3.63461 275.731 3.43415 275.37 3.43415H260.121ZM0.0228204 49.8475C0.0159281 53.7229 0.429036 57.6069 1.3763 61.3695C1.53611 62.0048 1.711 62.6358 1.90227 63.2621C4.22799 70.8962 8.7627 77.5216 15.6757 81.6764C21.7379 85.3201 29.1118 87.1419 37.7952 87.1419C38.164 87.1419 38.5319 87.138 38.8997 87.1294C45.6197 86.9826 52.6589 85.6807 58.8461 83.011C64.5387 80.5543 70.4635 76.8781 75.0663 72.7721C75.3811 72.4914 75.5806 72.1055 75.6293 71.6882L79.0082 43.1183L79.0117 43.0805L79.0147 43.0427C79.0341 42.5049 78.6119 42.0528 78.0726 42.0331L44.268 40.3714H44.1995C43.7188 40.3877 43.3151 40.7534 43.2608 41.2372L41.8225 53.6122L41.8178 53.6534L41.8165 53.6933C41.801 54.232 42.227 54.6806 42.7663 54.6956L60.6833 55.2013L59.5452 64.6087L59.3092 64.7933C57.3961 66.2691 54.9954 67.8008 52.7985 68.7168C43.1071 72.7614 28.868 72.9507 21.8495 63.9614C18.0018 59.0347 15.8687 49.9046 18.1819 39.2793L1.2251 38.6406C0.908086 38.9463 0.385097 43.4952 0.340728 43.9682C0.155497 45.9253 0.0262665 47.8814 0.0228204 49.8475ZM85.0748 43.4364C83.6528 56.6505 86.1642 67.0238 92.6085 74.5553C99.0528 82.0877 107.127 85.8541 119.418 85.8541C131.559 85.8541 140.371 82.0688 148.439 74.4991C156.071 67.3389 160.738 57.5709 162.441 45.1925L145.35 44.5477C143.759 53.7139 140.518 60.5131 135.626 64.9461C130.595 69.5037 126.05 71.6766 119.405 71.3294C112.761 70.9825 108.96 68.3541 105.419 63.3119C102.029 58.4827 100.951 51.6869 102.186 42.9225L85.207 42.2821C85.1605 42.6641 85.117 43.0487 85.0748 43.4364ZM176.623 74.5553C183.067 82.0877 191.141 85.8541 203.432 85.8541C215.573 85.8541 224.385 82.0688 232.454 74.4991C239.427 67.9575 243.925 59.2365 245.949 48.3382L228.733 47.6896C226.987 55.2837 223.956 61.0355 219.639 64.9462C214.61 69.5037 210.063 71.6766 203.419 71.3294C196.776 70.9825 192.974 68.3541 189.434 63.3119C186.461 59.0781 185.267 53.3323 185.849 46.0738L168.902 45.4355C167.933 57.7014 170.507 67.4076 176.623 74.5553ZM250.57 82.216L250.566 82.2688L250.564 82.3208C250.564 82.8496 250.995 83.2785 251.527 83.2785H265.602L265.669 83.2755C266.135 83.2437 266.514 82.8806 266.56 82.4114L269.841 49.2538L254.269 48.6674L250.57 82.216ZM294.614 82.7307L294.648 82.796C294.818 83.0926 295.137 83.2785 295.484 83.2785H314.239L314.308 83.275C314.768 83.2433 315.145 82.8883 315.196 82.4255L318.651 51.0932L303.054 50.5051L301.647 64.2546L295.736 50.2295L280.432 49.653L294.614 82.7307Z" fill="#252525"/>
</svg>
