<svg width="100" height="100" viewBox="0 0 100 100" fill="none" xmlns="http://www.w3.org/2000/svg">
<rect width="100" height="100" rx="23.4375" fill="white"/>
<circle cx="73.544" cy="70.631" r="6.06796" fill="#2E2E2E"/>
<path d="M26.2134 28.8631C26.2134 25.7911 28.7037 23.3008 31.7757 23.3008C34.8476 23.3008 37.338 25.7911 37.338 28.8631V62.2369C37.338 65.3088 34.8476 67.7992 31.7757 67.7992C28.7037 67.7992 26.2134 65.3088 26.2134 62.2369V28.8631Z" fill="#2E2E2E"/>
<path d="M50.6875 37.7633C50.6875 34.6913 53.1778 32.201 56.2498 32.201C59.3218 32.201 61.8121 34.6913 61.8121 37.7633V71.137C61.8121 74.209 59.3218 76.6993 56.2498 76.6993C53.1778 76.6993 50.6875 74.209 50.6875 71.1371V58.3438C50.6875 56.6649 49.6629 55.1561 48.1025 54.5368L47.6374 54.3523C45.1044 53.3472 42.2746 53.3975 39.779 54.4921C38.2959 55.1425 37.338 56.6087 37.338 58.2281V41.7726C37.338 43.3921 38.2959 44.8582 39.779 45.5087C42.2746 46.6032 45.1044 46.6536 47.6374 45.6484L48.1025 45.4639C49.6629 44.8446 50.6875 43.3358 50.6875 41.6569V37.7633Z" fill="#2E2E2E"/>
</svg>
