<svg xmlns="http://www.w3.org/2000/svg" viewBox="0 0 228.94 80"><defs><style>.a{fill:#06c755;}</style></defs><path class="a" d="M235.75,102.39A3.22,3.22,0,0,0,239,99.17v-12A3.23,3.23,0,0,0,235.75,84H188.4a3.22,3.22,0,0,0-3.22,3.22v.07h0v73.43h0v.05A3.22,3.22,0,0,0,188.4,164h47.35a3.22,3.22,0,0,0,3.22-3.22v-12a3.23,3.23,0,0,0-3.22-3.22H203.57V133.19h32.18A3.22,3.22,0,0,0,239,130V118a3.23,3.23,0,0,0-3.22-3.22H203.57V102.39Z" transform="translate(-10.03 -84)"/><path class="a" d="M60.6,145.6H28.42V87.22A3.23,3.23,0,0,0,25.2,84H13.25A3.22,3.22,0,0,0,10,87.22v73.5h0v.05A3.22,3.22,0,0,0,13.25,164H60.6a3.22,3.22,0,0,0,3.22-3.22v-12A3.23,3.23,0,0,0,60.6,145.6Z" transform="translate(-10.03 -84)"/><rect class="a" x="63.9" y="0.01" width="18.39" height="79.99" rx="3.22"/><path class="a" d="M170.47,84H158.52a3.22,3.22,0,0,0-3.22,3.22v43.68L121.65,85.47c-.08-.12-.17-.23-.26-.34l0,0-.19-.2-.06,0a1.19,1.19,0,0,0-.18-.15l-.08-.07-.17-.11-.1-.06-.18-.1-.1-.05-.19-.08-.11,0-.19-.06-.12,0-.19,0-.13,0-.18,0H107a3.22,3.22,0,0,0-3.21,3.22v73.55A3.22,3.22,0,0,0,107,164h12a3.22,3.22,0,0,0,3.21-3.22V117.11l33.7,45.5a3.19,3.19,0,0,0,.83.81l0,0,.2.12.09.05.16.08.16.07.1,0,.22.08h.05a3.34,3.34,0,0,0,.84.11h11.88a3.22,3.22,0,0,0,3.22-3.22V87.23A3.22,3.22,0,0,0,170.47,84Z" transform="translate(-10.03 -84)"/></svg>